<?xml version="1.0" encoding="UTF-8"?>
<!-- Generated by Pixelmator Pro 3.5.9 -->
<svg width="1024" height="1024" viewBox="0 0 1024 1024" xmlns="http://www.w3.org/2000/svg">
    <path id="Background-White" fill="#e1e5ee" fill-rule="evenodd" stroke="none" visibility="hidden" d="M -27 1052 L 1053 1052 L 1053 -28 L -27 -28 Z"/>
    <path id="Background-White-copie" fill="#1a1b20" fill-rule="evenodd" stroke="none" visibility="hidden" d="M -27 1052 L 1053 1052 L 1053 -28 L -27 -28 Z"/>
    <path id="Oval-Violet" fill="#2a324b" fill-rule="evenodd" stroke="none" visibility="hidden" d="M 958.5 300.75 C 958.5 173.172241 855.077759 69.75 727.5 69.75 C 599.922241 69.75 496.5 173.172241 496.5 300.75 C 496.5 428.327759 599.922241 531.75 727.5 531.75 C 855.077759 531.75 958.5 428.327759 958.5 300.75 Z"/>
    <path id="Oval-Orange" fill="#d66c53" fill-rule="evenodd" stroke="none" visibility="hidden" d="M 813.5 579 C 813.5 371.893188 645.606812 204 438.5 204 C 231.393219 204 63.5 371.893188 63.5 579 C 63.5 786.106812 231.393219 954 438.5 954 C 645.606812 954 813.5 786.106812 813.5 579 Z"/>
    <g id="favicon">
        <path id="Oval-Small" fill="#2a324b" fill-rule="evenodd" stroke="none" d="M 1024.233643 267.859619 C 1024.233643 120.187683 904.521851 0.475891 756.849915 0.475891 C 609.177979 0.475891 489.466187 120.187683 489.466187 267.859619 C 489.466187 415.531616 609.177979 535.243408 756.849915 535.243408 C 904.521851 535.243408 1024.233643 415.531616 1024.233643 267.859619 Z"/>
        <path id="path1" fill="#d66c53" fill-rule="evenodd" stroke="none" d="M 868.395386 589.935486 C 868.395386 350.208313 674.058044 155.870972 434.330872 155.870972 C 194.603653 155.870972 0.266363 350.208313 0.266363 589.935486 C 0.266363 829.66272 194.603653 1024 434.330872 1024 C 674.058044 1024 868.395386 829.66272 868.395386 589.935486 Z"/>
    </g>
</svg>
