<svg width="48" height="48" viewBox="0 0 48 48" fill="none" xmlns="http://www.w3.org/2000/svg">
<path fill-rule="evenodd" clip-rule="evenodd" d="M31.5368 0.600441C39.6601 1.90515 46.0949 8.33977 47.3996 16.4632C47.7937 18.917 48 21.4336 48 24C48 26.5664 47.7937 29.083 47.3996 31.5368C46.0949 39.6602 39.6602 46.0948 31.5368 47.3996C29.0829 47.7937 26.5663 48 24 48C21.4337 48 18.9171 47.7936 16.4632 47.3996C8.3399 46.0948 1.90514 39.6602 0.600431 31.5368C0.206277 29.083 0 26.5664 0 24C0 21.4336 0.206343 18.917 0.600431 16.4632C1.90514 8.33977 8.33983 1.90515 16.4632 0.600441C18.9171 0.206287 21.4337 0 24 0C26.5663 0 29.0829 0.206353 31.5368 0.600441ZM8.37932 27.6803H14.3322C14.3322 26.8684 13.6741 26.2103 12.8622 26.2103H9.44401L13.5674 22.087C13.8627 21.7916 13.9502 21.3514 13.7903 20.9656C13.6305 20.5797 13.2573 20.3304 12.8397 20.3304H7.34983C7.34983 21.1423 8.00796 21.8004 8.81981 21.8004H11.7751L7.65174 25.9237C7.35639 26.219 7.26883 26.6592 7.42866 27.0451C7.58849 27.4309 7.96165 27.6803 8.37932 27.6803ZM37.7784 20.2202C39.3589 20.2202 40.6448 21.506 40.6448 23.0866V27.6803C39.833 27.6803 39.1748 27.0222 39.1748 26.2103V23.0866C39.1748 22.3166 38.5484 21.6901 37.7784 21.6901C37.0083 21.6901 36.3819 22.3166 36.3819 23.0866V27.6803C35.57 27.6803 34.9119 27.0222 34.9119 26.2103V23.0866C34.9119 22.3166 34.2854 21.6901 33.5154 21.6901C32.7454 21.6901 32.1189 22.3166 32.1189 23.0866V26.2103C32.1189 27.0222 31.4608 27.6803 30.649 27.6803V23.0866C30.649 21.506 31.9349 20.2202 33.5154 20.2202C34.3609 20.2202 35.1218 20.5883 35.6469 21.1725C36.172 20.5883 36.9329 20.2202 37.7784 20.2202ZM26.1288 27.7905C28.2193 27.7905 29.914 26.0959 29.914 24.0054C29.914 21.9148 28.2193 20.2202 26.1288 20.2202C24.0383 20.2202 22.3436 21.9148 22.3436 24.0054C22.3436 26.0959 24.0383 27.7905 26.1288 27.7905ZM26.1288 21.6901C27.4074 21.6901 28.444 22.7267 28.444 24.0054C28.444 25.284 27.4074 26.3206 26.1288 26.3206C24.8501 26.3206 23.8136 25.284 23.8136 24.0054C23.8136 22.7267 24.8501 21.6901 26.1288 21.6901ZM17.9704 27.7905C20.0609 27.7905 21.7556 26.0959 21.7556 24.0054C21.7556 21.9148 20.0609 20.2202 17.9704 20.2202C15.8799 20.2202 14.1852 21.9148 14.1852 24.0054C14.1852 26.0959 15.8799 27.7905 17.9704 27.7905ZM17.9704 21.6901C19.2491 21.6901 20.2856 22.7267 20.2856 24.0054C20.2856 25.284 19.2491 26.3206 17.9704 26.3206C16.6918 26.3206 15.6552 25.284 15.6552 24.0054C15.6552 22.7267 16.6918 21.6901 17.9704 21.6901Z" fill="white"/>
</svg>
